<svg width="299" height="299" viewBox="0 0 299 299" fill="none" xmlns="http://www.w3.org/2000/svg">
<rect width="299" height="299" fill="white"/>
<path fill-rule="evenodd" clip-rule="evenodd" d="M24.7237 186.269L24.6921 151.053L63.053 112.692L98.3076 112.692L98.3076 147.947L59.9467 186.308L24.7237 186.269Z" fill="#635BFF"/>
<path d="M155.905 143.869H149.53C149.348 142.824 149.013 141.898 148.524 141.091C148.036 140.273 147.428 139.58 146.701 139.011C145.973 138.443 145.144 138.017 144.212 137.733C143.292 137.438 142.297 137.29 141.229 137.29C139.331 137.29 137.649 137.767 136.184 138.722C134.718 139.665 133.57 141.051 132.74 142.881C131.911 144.699 131.496 146.92 131.496 149.545C131.496 152.216 131.911 154.466 132.74 156.295C133.581 158.114 134.729 159.489 136.184 160.42C137.649 161.341 139.326 161.801 141.212 161.801C142.257 161.801 143.235 161.665 144.144 161.392C145.064 161.108 145.888 160.693 146.615 160.148C147.354 159.602 147.973 158.932 148.473 158.136C148.985 157.341 149.337 156.432 149.53 155.409L155.905 155.443C155.667 157.102 155.149 158.659 154.354 160.114C153.57 161.568 152.542 162.852 151.269 163.966C149.996 165.068 148.507 165.932 146.803 166.557C145.098 167.17 143.206 167.477 141.127 167.477C138.059 167.477 135.32 166.767 132.911 165.347C130.502 163.926 128.604 161.875 127.218 159.193C125.831 156.511 125.138 153.295 125.138 149.545C125.138 145.784 125.837 142.568 127.235 139.898C128.632 137.216 130.536 135.165 132.945 133.744C135.354 132.324 138.081 131.614 141.127 131.614C143.07 131.614 144.877 131.886 146.547 132.432C148.218 132.977 149.706 133.778 151.013 134.835C152.32 135.881 153.394 137.165 154.235 138.688C155.087 140.199 155.644 141.926 155.905 143.869ZM180.668 141.688C180.509 140.199 179.838 139.04 178.657 138.21C177.486 137.381 175.963 136.966 174.088 136.966C172.77 136.966 171.64 137.165 170.696 137.562C169.753 137.96 169.032 138.5 168.532 139.182C168.032 139.864 167.776 140.642 167.765 141.517C167.765 142.244 167.929 142.875 168.259 143.409C168.6 143.943 169.06 144.398 169.64 144.773C170.219 145.136 170.861 145.443 171.566 145.693C172.27 145.943 172.98 146.153 173.696 146.324L176.969 147.142C178.287 147.449 179.554 147.864 180.77 148.386C181.997 148.909 183.094 149.568 184.06 150.364C185.037 151.159 185.81 152.119 186.378 153.244C186.946 154.369 187.23 155.687 187.23 157.199C187.23 159.244 186.708 161.045 185.662 162.602C184.617 164.148 183.105 165.358 181.128 166.233C179.162 167.097 176.782 167.528 173.986 167.528C171.27 167.528 168.912 167.108 166.912 166.267C164.924 165.426 163.367 164.199 162.242 162.585C161.128 160.972 160.526 159.006 160.435 156.688H166.657C166.747 157.903 167.122 158.915 167.782 159.722C168.441 160.528 169.299 161.131 170.355 161.528C171.424 161.926 172.617 162.125 173.935 162.125C175.31 162.125 176.515 161.92 177.549 161.511C178.594 161.091 179.412 160.511 180.003 159.773C180.594 159.023 180.895 158.148 180.907 157.148C180.895 156.239 180.628 155.489 180.105 154.898C179.583 154.295 178.85 153.795 177.907 153.398C176.975 152.989 175.884 152.625 174.634 152.307L170.662 151.284C167.787 150.545 165.515 149.426 163.844 147.926C162.185 146.415 161.355 144.409 161.355 141.909C161.355 139.852 161.912 138.051 163.026 136.506C164.151 134.96 165.679 133.761 167.611 132.909C169.543 132.045 171.73 131.614 174.174 131.614C176.651 131.614 178.821 132.045 180.685 132.909C182.56 133.761 184.032 134.949 185.1 136.472C186.168 137.983 186.719 139.722 186.753 141.688H180.668ZM196.431 176.818C195.59 176.818 194.811 176.75 194.096 176.614C193.391 176.489 192.828 176.341 192.408 176.17L193.84 171.364C194.738 171.625 195.539 171.75 196.243 171.739C196.948 171.727 197.567 171.506 198.101 171.074C198.647 170.653 199.107 169.949 199.482 168.96L200.01 167.545L190.516 140.818H197.061L203.096 160.591H203.368L209.419 140.818H215.982L205.499 170.17C205.01 171.557 204.363 172.744 203.556 173.733C202.749 174.733 201.76 175.494 200.59 176.017C199.431 176.551 198.044 176.818 196.431 176.818ZM226.422 151.659V167H220.252V140.818H226.149V145.267H226.456C227.059 143.801 228.019 142.636 229.337 141.773C230.667 140.909 232.309 140.477 234.263 140.477C236.07 140.477 237.644 140.864 238.985 141.636C240.337 142.409 241.382 143.528 242.121 144.994C242.871 146.46 243.24 148.239 243.229 150.33V167H237.059V151.284C237.059 149.534 236.604 148.165 235.695 147.176C234.797 146.187 233.553 145.693 231.962 145.693C230.882 145.693 229.922 145.932 229.081 146.409C228.252 146.875 227.598 147.551 227.121 148.438C226.655 149.324 226.422 150.398 226.422 151.659ZM260.922 167.511C258.309 167.511 256.064 166.938 254.189 165.79C252.326 164.642 250.888 163.057 249.877 161.034C248.877 159 248.377 156.659 248.377 154.011C248.377 151.352 248.888 149.006 249.911 146.972C250.934 144.926 252.377 143.335 254.24 142.199C256.115 141.051 258.331 140.477 260.888 140.477C263.013 140.477 264.894 140.869 266.53 141.653C268.178 142.426 269.49 143.523 270.468 144.943C271.445 146.352 272.002 148 272.138 149.886H266.24C266.002 148.625 265.434 147.574 264.536 146.733C263.649 145.881 262.462 145.455 260.973 145.455C259.712 145.455 258.604 145.795 257.649 146.477C256.695 147.148 255.951 148.114 255.417 149.375C254.894 150.636 254.632 152.148 254.632 153.909C254.632 155.693 254.894 157.227 255.417 158.511C255.939 159.784 256.672 160.767 257.615 161.46C258.57 162.142 259.689 162.483 260.973 162.483C261.882 162.483 262.695 162.312 263.411 161.972C264.138 161.619 264.746 161.114 265.235 160.455C265.723 159.795 266.059 158.994 266.24 158.051H272.138C271.99 159.903 271.445 161.545 270.502 162.977C269.559 164.398 268.274 165.511 266.649 166.318C265.024 167.114 263.115 167.511 260.922 167.511Z" fill="#30313D"/>
</svg>
