<svg width="200" height="200" viewBox="0 0 200 200" fill="none" xmlns="http://www.w3.org/2000/svg">
<rect width="200" height="200" fill="white"/>
<path fill-rule="evenodd" clip-rule="evenodd" d="M63.2237 101.269L63.1921 66.0532L101.553 27.6923L136.808 27.6923L136.808 62.9468L98.4467 101.308L63.2237 101.269Z" fill="#635BFF"/>
<path d="M57.5973 149.177H51.2223C51.0405 148.132 50.7053 147.205 50.2166 146.399C49.728 145.58 49.12 144.887 48.3928 144.319C47.6655 143.751 46.8359 143.325 45.9041 143.041C44.9837 142.745 43.9893 142.598 42.9212 142.598C41.0234 142.598 39.3416 143.075 37.8757 144.029C36.4098 144.973 35.2621 146.359 34.4325 148.188C33.603 150.007 33.1882 152.228 33.1882 154.853C33.1882 157.524 33.603 159.774 34.4325 161.603C35.2734 163.421 36.4212 164.796 37.8757 165.728C39.3416 166.649 41.0178 167.109 42.9041 167.109C43.9496 167.109 44.9268 166.973 45.8359 166.7C46.7564 166.416 47.5803 166.001 48.3075 165.455C49.0462 164.91 49.6655 164.24 50.1655 163.444C50.6768 162.649 51.0291 161.74 51.2223 160.717L57.5973 160.751C57.3587 162.41 56.8416 163.967 56.0462 165.421C55.2621 166.876 54.2337 168.16 52.9609 169.274C51.6882 170.376 50.1996 171.24 48.495 171.865C46.7905 172.478 44.8984 172.785 42.8189 172.785C39.7507 172.785 37.0121 172.075 34.603 170.654C32.1939 169.234 30.2962 167.183 28.9098 164.501C27.5234 161.819 26.8303 158.603 26.8303 154.853C26.8303 151.092 27.5291 147.876 28.9268 145.205C30.3246 142.524 32.228 140.473 34.6371 139.052C37.0462 137.632 39.7734 136.921 42.8189 136.921C44.7621 136.921 46.5689 137.194 48.2393 137.74C49.9098 138.285 51.3984 139.086 52.7053 140.143C54.0121 141.188 55.0859 142.473 55.9268 143.995C56.7791 145.507 57.3359 147.234 57.5973 149.177ZM82.3601 146.995C82.201 145.507 81.5305 144.348 80.3487 143.518C79.1783 142.688 77.6555 142.274 75.7805 142.274C74.4624 142.274 73.3317 142.473 72.3885 142.87C71.4453 143.268 70.7237 143.808 70.2237 144.49C69.7237 145.171 69.468 145.95 69.4567 146.825C69.4567 147.552 69.6214 148.183 69.951 148.717C70.2919 149.251 70.7521 149.705 71.3317 150.08C71.9112 150.444 72.5533 150.751 73.2578 151.001C73.9624 151.251 74.6726 151.461 75.3885 151.632L78.6612 152.45C79.9794 152.757 81.2464 153.171 82.4624 153.694C83.6896 154.217 84.7862 154.876 85.7521 155.671C86.7294 156.467 87.5021 157.427 88.0703 158.552C88.6385 159.677 88.9226 160.995 88.9226 162.507C88.9226 164.552 88.3999 166.353 87.3544 167.91C86.309 169.455 84.7976 170.666 82.8203 171.541C80.8544 172.404 78.4737 172.836 75.6783 172.836C72.9624 172.836 70.6044 172.416 68.6044 171.575C66.6158 170.734 65.0589 169.507 63.9339 167.893C62.8203 166.279 62.218 164.313 62.1271 161.995H68.3487C68.4396 163.211 68.8146 164.223 69.4737 165.029C70.1328 165.836 70.9908 166.438 72.0476 166.836C73.1158 167.234 74.3089 167.433 75.6271 167.433C77.0021 167.433 78.2067 167.228 79.2408 166.819C80.2862 166.399 81.1044 165.819 81.6953 165.08C82.2862 164.33 82.5874 163.455 82.5987 162.455C82.5874 161.546 82.3203 160.796 81.7976 160.205C81.2749 159.603 80.5419 159.103 79.5987 158.705C78.6669 158.296 77.576 157.933 76.326 157.615L72.3544 156.592C69.4794 155.853 67.2067 154.734 65.5362 153.234C63.8771 151.723 63.0476 149.717 63.0476 147.217C63.0476 145.16 63.6044 143.359 64.718 141.813C65.843 140.268 67.3714 139.069 69.3033 138.217C71.2351 137.353 73.4226 136.921 75.8658 136.921C78.343 136.921 80.5135 137.353 82.3771 138.217C84.2521 139.069 85.7237 140.257 86.7919 141.779C87.8601 143.291 88.4112 145.029 88.4453 146.995H82.3601ZM98.1229 182.126C97.282 182.126 96.5036 182.058 95.7876 181.921C95.0831 181.796 94.5206 181.649 94.1001 181.478L95.532 176.671C96.4297 176.933 97.2308 177.058 97.9354 177.046C98.6399 177.035 99.2592 176.813 99.7933 176.382C100.339 175.961 100.799 175.257 101.174 174.268L101.702 172.853L92.2081 146.126H98.7536L104.788 165.899H105.06L111.112 146.126H117.674L107.191 175.478C106.702 176.865 106.055 178.052 105.248 179.041C104.441 180.041 103.452 180.802 102.282 181.325C101.123 181.859 99.7365 182.126 98.1229 182.126ZM128.114 156.967V172.308H121.944V146.126H127.842V150.575H128.148C128.751 149.109 129.711 147.944 131.029 147.08C132.359 146.217 134.001 145.785 135.955 145.785C137.762 145.785 139.336 146.171 140.677 146.944C142.029 147.717 143.075 148.836 143.813 150.302C144.563 151.768 144.933 153.546 144.921 155.637V172.308H138.751V156.592C138.751 154.842 138.296 153.473 137.387 152.484C136.489 151.495 135.245 151.001 133.654 151.001C132.575 151.001 131.614 151.24 130.773 151.717C129.944 152.183 129.29 152.859 128.813 153.745C128.347 154.632 128.114 155.705 128.114 156.967ZM162.614 172.819C160.001 172.819 157.756 172.245 155.881 171.098C154.018 169.95 152.58 168.365 151.569 166.342C150.569 164.308 150.069 161.967 150.069 159.319C150.069 156.66 150.58 154.313 151.603 152.279C152.626 150.234 154.069 148.643 155.933 147.507C157.808 146.359 160.023 145.785 162.58 145.785C164.705 145.785 166.586 146.177 168.222 146.961C169.87 147.734 171.183 148.83 172.16 150.251C173.137 151.66 173.694 153.308 173.83 155.194H167.933C167.694 153.933 167.126 152.882 166.228 152.041C165.342 151.188 164.154 150.762 162.665 150.762C161.404 150.762 160.296 151.103 159.342 151.785C158.387 152.455 157.643 153.421 157.109 154.683C156.586 155.944 156.325 157.455 156.325 159.217C156.325 161.001 156.586 162.535 157.109 163.819C157.631 165.092 158.364 166.075 159.308 166.768C160.262 167.45 161.381 167.791 162.665 167.791C163.575 167.791 164.387 167.62 165.103 167.279C165.83 166.927 166.438 166.421 166.927 165.762C167.415 165.103 167.751 164.302 167.933 163.359H173.83C173.683 165.211 173.137 166.853 172.194 168.285C171.251 169.705 169.967 170.819 168.342 171.626C166.717 172.421 164.808 172.819 162.614 172.819Z" fill="#30313D"/>
</svg>
